<svg width="1689" height="1689" viewBox="0 0 1689 1689" fill="none" xmlns="http://www.w3.org/2000/svg">
<path d="M1431.5 1100.5L1430.5 592L1164.5 740L896.012 592.966L896.013 1100.5L1162.5 1249L1431.5 1100.5Z" fill="url(#paint0_linear_29_9004)"/>
<path d="M474 534L894.5 298L1163.5 446.5L1163.5 740L740.5 976L741 682L474 534Z" fill="url(#paint1_radial_29_9004)"/>
<path d="M473.001 830.499L204 681.998L204.5 975.999L473.001 1124V830.499Z" fill="url(#paint2_linear_29_9004)"/>
<path d="M473 830.5L741 682L740.502 976L473 1124V830.5Z" fill="url(#paint3_linear_29_9004)"/>
<path d="M473.001 830.501L204 682.001L472.501 534L741.002 682.001L473.001 830.501Z" fill="url(#paint4_linear_29_9004)"/>
<path d="M442.5 665.5C452.058 674.9 461.552 683.889 470.742 693.288C479.932 702.101 489.306 711.207 498.863 720.607C498.496 750.569 498.128 776.418 497.76 798.155C497.76 819.305 497.76 839.28 497.76 858.079C497.76 876.879 497.76 895.972 497.76 915.36C498.128 934.159 498.496 956.19 498.863 981.452C489.306 990.265 479.748 999.371 470.19 1008.77C461 1018.17 450.891 1027.28 439.863 1036.09C439.863 1026.69 439.863 1015.23 439.863 1001.72C440.231 987.621 440.415 973.228 440.415 958.54C440.782 943.266 440.966 928.578 440.966 914.478C440.966 900.379 440.598 888.335 439.863 878.348C439.863 837.223 440.231 798.155 440.966 761.144C441.701 724.132 441.47 692.35 440 666.5C440 665.5 440 664 440 663C441.5 664.5 442.042 665.05 442.5 665.5Z" fill="#5D4901"/>
<path d="M1163.5 446.5L894.469 297.998L894.969 591.999L1163.5 740V446.5Z" fill="url(#paint5_linear_29_9004)"/>
<path d="M1163.5 446.5L1431.5 298L1430.74 591.999L1163.5 740V446.5Z" fill="url(#paint6_linear_29_9004)"/>
<path d="M1163.5 446.5L894.469 298.001L1162.97 150L1431.5 298L1163.5 446.5Z" fill="url(#paint7_linear_29_9004)"/>
<path d="M1070.66 300.496V396.691C1086.94 388.918 1102.62 381.037 1117.71 373.047C1133.03 364.842 1148.24 356.853 1163.32 349.079C1180.09 357.285 1196.73 365.598 1213.25 374.019C1230.01 382.224 1246.77 390.753 1263.54 399.606L1295.86 417.096V554.102C1290.36 557.125 1284.85 560.04 1279.34 562.847C1274.07 565.654 1268.45 568.569 1262.46 571.592C1246.18 579.797 1229.77 588.219 1213.25 596.856C1196.97 605.493 1180.69 614.238 1164.4 623.091C1142.13 611.431 1119.98 599.879 1097.95 588.435C1076.16 577.206 1054.13 565.762 1031.86 554.102V413.21C1031.86 390.753 1031.98 368.297 1032.22 345.841C1032.46 323.168 1032.34 301.576 1031.86 281.062V280.091C1045.75 287 1058.68 293.802 1070.66 300.496ZM1164.4 388.918C1148.6 396.691 1132.91 404.681 1117.35 412.886C1102.02 421.091 1086.46 429.296 1070.66 437.502V533.697C1086.46 541.902 1102.02 550 1117.35 557.989C1132.91 565.978 1148.24 574.075 1163.32 582.281C1179.13 574.507 1194.69 566.518 1210.02 558.313C1225.58 550.108 1241.27 541.902 1257.07 533.697V437.502C1241.27 429.296 1225.82 421.199 1210.74 413.21C1195.65 405.221 1180.21 397.123 1164.4 388.918Z" fill="#5D4901"/>
<path d="M1163.5 1248.5L894.863 1100.09L895.363 1394.09L1163 1542L1163.5 1248.5Z" fill="url(#paint8_linear_29_9004)"/>
<path d="M1163.5 1248.5L1431.5 1100L1431.13 1394.09L1163 1542L1163.5 1248.5Z" fill="url(#paint9_linear_29_9004)"/>
<path d="M1163.5 1248.5L894.863 1100.09L1163.36 952.091L1431.5 1100L1163.5 1248.5Z" fill="url(#paint10_linear_29_9004)"/>
<path d="M1158.75 1438.09C1141.9 1427.52 1125.06 1416.67 1108.21 1405.54C1091.12 1394.42 1074.15 1383.15 1057.31 1371.75C1051.61 1367.85 1045.91 1364.24 1040.21 1360.9C1034.27 1357.56 1028.82 1353.67 1023.86 1349.21C1030.55 1345.32 1037.24 1341.29 1043.93 1337.11C1050.37 1332.94 1056.69 1328.63 1062.88 1324.18C1079.23 1334.19 1095.46 1344.35 1111.56 1354.64C1127.41 1365.21 1143.14 1375.5 1158.75 1385.52C1175.1 1375.5 1191.2 1365.21 1207.05 1354.64C1222.66 1344.35 1238.89 1334.19 1255.73 1324.18C1253.5 1322.23 1251.15 1320.42 1248.67 1318.76C1245.95 1317.09 1243.47 1315.56 1241.24 1314.17C1224.4 1302.76 1207.55 1291.63 1190.7 1280.78C1173.61 1270.21 1156.64 1259.23 1139.8 1247.82C1125.18 1238.36 1110.69 1229.04 1096.32 1219.87C1081.71 1210.96 1066.84 1201.51 1051.73 1191.49C1047.27 1188.43 1042.69 1185.23 1037.98 1181.89C1033.03 1178.83 1028.32 1175.77 1023.86 1172.71C1046.41 1158.25 1068.95 1143.65 1091.49 1128.9C1113.79 1114.16 1136.21 1099.56 1158.75 1085.09C1181.79 1099.56 1204.45 1114.16 1226.75 1128.9C1249.04 1143.65 1272.96 1160.54 1296 1175C1289 1179 1282.98 1182 1275.5 1186.5C1268.56 1190.67 1261.31 1194.55 1254.62 1199C1239.01 1188.43 1223.28 1178 1207.43 1167.71C1191.32 1157.42 1175.1 1146.98 1158.75 1136.41C1149.83 1142.81 1140.79 1148.93 1131.62 1154.77C1122.21 1160.34 1113.04 1166.32 1104.13 1172.71C1108.09 1175.77 1112.05 1178.42 1116.02 1180.64C1119.73 1183.15 1123.57 1185.93 1127.54 1188.99C1155.53 1207.35 1183.64 1225.29 1211.89 1242.81C1239.88 1260.62 1267.87 1278.98 1295.86 1297.89C1295.86 1306.79 1295.74 1315.56 1295.49 1324.18C1295.24 1332.8 1295.37 1341.15 1295.86 1349.21C1272.83 1364.24 1250.03 1379.12 1227.49 1393.86C1204.7 1408.88 1181.79 1423.63 1158.75 1438.09Z" fill="#5E4901"/>
<defs>
<linearGradient id="paint0_linear_29_9004" x1="1203.82" y1="592.051" x2="1386.52" y2="1653.25" gradientUnits="userSpaceOnUse">
<stop stop-color="white"/>
<stop offset="1" stop-color="#DCBC00" stop-opacity="0"/>
</linearGradient>
<radialGradient id="paint1_radial_29_9004" cx="0" cy="0" r="1" gradientUnits="userSpaceOnUse" gradientTransform="translate(99.3635 437.591) rotate(9.55887) scale(975.545 1639.28)">
<stop stop-color="white"/>
<stop offset="1" stop-color="#FFD900" stop-opacity="0.27"/>
</radialGradient>
<linearGradient id="paint2_linear_29_9004" x1="473.002" y1="1124" x2="40.4043" y2="666.004" gradientUnits="userSpaceOnUse">
<stop stop-color="#FFD700"/>
<stop offset="1" stop-color="#C1A300" stop-opacity="0"/>
</linearGradient>
<linearGradient id="paint3_linear_29_9004" x1="607" y1="682" x2="939.436" y2="1106.8" gradientUnits="userSpaceOnUse">
<stop stop-color="#FFDE1E"/>
<stop offset="1" stop-color="#FFE341" stop-opacity="0"/>
</linearGradient>
<linearGradient id="paint4_linear_29_9004" x1="472.501" y1="534" x2="1098.4" y2="910.004" gradientUnits="userSpaceOnUse">
<stop stop-color="#FFED84"/>
<stop offset="1" stop-color="#FFF1A0" stop-opacity="0"/>
</linearGradient>
<linearGradient id="paint5_linear_29_9004" x1="1163.47" y1="740" x2="730.873" y2="282.004" gradientUnits="userSpaceOnUse">
<stop stop-color="#C1A300"/>
<stop offset="0.479167" stop-color="#F0D22D" stop-opacity="0.520833"/>
<stop offset="1" stop-color="#C1A300" stop-opacity="0"/>
</linearGradient>
<linearGradient id="paint6_linear_29_9004" x1="1296.73" y1="297.998" x2="1628.87" y2="724.004" gradientUnits="userSpaceOnUse">
<stop stop-color="#FFF2A8"/>
<stop offset="1" stop-color="#FFE341" stop-opacity="0"/>
</linearGradient>
<linearGradient id="paint7_linear_29_9004" x1="1162.97" y1="150" x2="1788.87" y2="526.004" gradientUnits="userSpaceOnUse">
<stop stop-color="#FFE133"/>
<stop offset="1" stop-color="#FFF1A0" stop-opacity="0"/>
</linearGradient>
<linearGradient id="paint8_linear_29_9004" x1="1163.87" y1="1542.09" x2="731.268" y2="1084.09" gradientUnits="userSpaceOnUse">
<stop stop-color="#C1A300"/>
<stop offset="0.692708" stop-color="#FFD701" stop-opacity="0.6"/>
<stop offset="1" stop-color="#C1A300" stop-opacity="0"/>
</linearGradient>
<linearGradient id="paint9_linear_29_9004" x1="1297.13" y1="1100.09" x2="1629.27" y2="1526.09" gradientUnits="userSpaceOnUse">
<stop stop-color="#FFD900"/>
<stop offset="1" stop-color="#FFE341" stop-opacity="0"/>
</linearGradient>
<linearGradient id="paint10_linear_29_9004" x1="1163.36" y1="952.091" x2="1789.27" y2="1328.09" gradientUnits="userSpaceOnUse">
<stop stop-color="#FFF5BC"/>
<stop offset="1" stop-color="#FFF1A0" stop-opacity="0"/>
</linearGradient>
</defs>
</svg>
